<?xml version="1.0" encoding="utf-8"?>
<!-- Generator: Adobe Illustrator 16.0.0, SVG Export Plug-In . SVG Version: 6.00 Build 0)  -->
<!DOCTYPE svg PUBLIC "-//W3C//DTD SVG 1.1//EN" "http://www.w3.org/Graphics/SVG/1.1/DTD/svg11.dtd">
<svg version="1.1" id="Layer_1" xmlns="http://www.w3.org/2000/svg" xmlns:xlink="http://www.w3.org/1999/xlink" x="0px" y="0px"
	 width="20px" height="20.167px" viewBox="0 0 20 20.167" enable-background="new 0 0 20 20.167" xml:space="preserve">
<g>
	<rect x="6.145" y="1.775" fill="#FFFFFF" width="11.054" height="18.35"/>
	<path fill="#3B5A99" d="M18.882-0.002H1.148c-0.608,0-1.1,0.497-1.1,1.11v17.905c0,0.613,0.492,1.111,1.1,1.111h9.547v-7.794H8.097
		V9.292h2.598v-2.24c0-2.599,1.573-4.015,3.87-4.015c1.101,0,2.047,0.082,2.321,0.12v2.716l-1.593,0.001
		c-1.249,0-1.491,0.599-1.491,1.479v1.939h2.979l-0.389,3.038h-2.591v7.794h5.08c0.608,0,1.101-0.498,1.101-1.111V1.108
		C19.983,0.495,19.491-0.002,18.882-0.002"/>
</g>
</svg>
